<?xml version="1.0" encoding="UTF-8"?>
<svg version="1.1" xmlns="http://www.w3.org/2000/svg" width="3464" height="1948">
<path d="M0 0 C2.32538331 -0.00218096 4.65028627 -0.02039578 6.97558594 -0.03930664 C20.37693074 -0.0913643 33.64899436 0.73652723 46.53027344 4.74780273 C47.77405762 5.12763306 47.77405762 5.12763306 49.04296875 5.51513672 C57.78473598 8.33546478 65.72442562 12.49333294 73.59277344 17.18530273 C74.71135742 17.83861572 74.71135742 17.83861572 75.85253906 18.50512695 C76.9537207 19.16472412 76.9537207 19.16472412 78.07714844 19.83764648 C78.7497168 20.23846436 79.42228516 20.63928223 80.11523438 21.05224609 C80.60282227 21.42615479 81.09041016 21.80006348 81.59277344 22.18530273 C81.59277344 22.84530273 81.59277344 23.50530273 81.59277344 24.18530273 C82.21152344 24.49467773 82.83027344 24.80405273 83.46777344 25.12280273 C84.84277344 25.81030273 86.21777344 26.49780273 87.59277344 27.18530273 C87.59277344 27.84530273 87.59277344 28.50530273 87.59277344 29.18530273 C88.42808594 29.51788086 88.42808594 29.51788086 89.28027344 29.85717773 C92.32174177 31.60396698 94.25455541 33.82619359 96.59277344 36.43530273 C97.43839844 37.36858398 98.28402344 38.30186523 99.15527344 39.26342773 C101.5440241 42.12686602 103.57923049 45.04986891 105.59277344 48.18530273 C106.12 48.9703418 106.64722656 49.75538086 107.19042969 50.56420898 C111.26242041 56.63418982 114.74706607 62.42674773 117.59277344 69.18530273 C118.57814865 71.19254853 119.573404 73.19510527 120.59277344 75.18530273 C122.57457556 73.39224367 123.79635565 71.83514134 125.15527344 69.49780273 C125.86683594 68.35311523 125.86683594 68.35311523 126.59277344 67.18530273 C127.25277344 67.18530273 127.91277344 67.18530273 128.59277344 67.18530273 C128.65464844 66.48405273 128.71652344 65.78280273 128.78027344 65.06030273 C129.637226 62.02800907 130.87263271 60.36528763 132.95214844 58.04077148 C135.00460219 55.71954402 136.91049995 53.2949008 138.84277344 50.87280273 C149.05531702 38.44306219 161.00556008 28.73840467 174.59277344 20.18530273 C175.39199219 19.67225586 176.19121094 19.15920898 177.01464844 18.63061523 C181.87996724 15.59356841 186.6983077 13.14763322 192.07324219 11.14233398 C193.96579808 10.42345616 195.8251381 9.61615722 197.66308594 8.76733398 C202.69164768 6.59888105 207.97911316 5.3781427 213.28027344 4.06030273 C214.29283203 3.79604492 215.30539062 3.53178711 216.34863281 3.25952148 C228.35285276 0.24891508 240.26099274 -0.00132698 252.57275391 0 C254.82571494 -0.00218075 257.07817997 -0.02039762 259.33105469 -0.03930664 C272.64427298 -0.0927223 285.81117537 0.78324252 298.59277344 4.81030273 C299.42599121 5.06755127 300.25920898 5.3247998 301.11767578 5.58984375 C323.19216866 12.70881509 341.94737109 26.43796898 355.59277344 45.18530273 C356.19605469 45.99612305 356.79933594 46.80694336 357.42089844 47.64233398 C367.80923425 61.98275407 374.79039361 78.21418079 379.59277344 95.18530273 C379.81312256 95.87648193 380.03347168 96.56766113 380.26049805 97.27978516 C382.5894714 104.66231995 384.18207259 112.15396829 385.65527344 119.74780273 C385.78694916 120.42183136 385.91862488 121.09585999 386.05429077 121.79031372 C388.37401244 133.79577914 389.77566778 145.73715807 390.4091959 157.95656586 C390.53220587 160.12004862 390.67575834 162.2824553 390.8391943 164.44326019 C391.71917094 176.48953183 391.72709192 188.50038745 391.70629883 200.57397461 C391.70601621 202.89157612 391.70617615 205.20917772 391.70674133 207.52677917 C391.70702639 213.77150827 391.70117707 220.01621787 391.69416738 226.26094246 C391.68788502 232.80453516 391.68732619 239.34812838 391.68614197 245.89172363 C391.6835608 256.85954117 391.67716261 267.82735193 391.66821289 278.79516602 C391.65901097 290.08390264 391.65194379 301.37263733 391.64770508 312.66137695 C391.64744235 313.35911734 391.64717963 314.05685772 391.64690895 314.77574176 C391.64560376 318.27666834 391.64434008 321.77759493 391.64309704 325.27852154 C391.63275776 354.247454 391.61433757 383.21637619 391.59277344 412.18530273 C364.53277344 412.18530273 337.47277344 412.18530273 309.59277344 412.18530273 C309.56771729 405.28188965 309.54266113 398.37847656 309.5168457 391.26586914 C309.43579867 369.11735481 309.35015449 346.96885997 309.2616565 324.82037423 C309.24788874 321.37365783 309.23416137 317.92694127 309.22045898 314.48022461 C309.21773068 313.79411418 309.21500238 313.10800376 309.2121914 312.40110211 C309.16824917 301.3264115 309.12757021 290.25171123 309.08812083 279.17700382 C309.04749672 267.79315696 309.00324215 256.40932942 308.95589489 245.02550828 C308.92944907 238.63991203 308.90460153 232.25431894 308.88369942 225.86870193 C308.86393236 219.84577157 308.83973272 213.82287454 308.81228256 207.79997444 C308.80301718 205.60156302 308.79530556 203.40314434 308.78935432 201.20472145 C309.01281456 176.85152176 309.01281456 176.85152176 305.71777344 152.81030273 C305.44670776 151.5520166 305.44670776 151.5520166 305.17016602 150.26831055 C304.8136295 148.62947691 304.45081396 146.99199172 304.08056641 145.35620117 C303.66690727 143.51523169 303.28458696 141.6672642 302.90917969 139.81811523 C300.80564347 130.1758188 296.99372073 120.0103756 291.37011719 111.83374023 C289.59277344 109.18530273 289.59277344 109.18530273 289.59277344 107.18530273 C288.93277344 107.18530273 288.27277344 107.18530273 287.59277344 107.18530273 C286.56628066 106.06005118 285.59689648 104.88247629 284.65527344 103.68530273 C277.88923842 95.76819952 269.52872726 90.22166516 259.59277344 87.18530273 C258.45195313 86.81405273 257.31113281 86.44280273 256.13574219 86.06030273 C232.7501349 79.13572562 205.61360762 81.68562129 184.0065918 92.95849609 C175.21859725 97.86477498 167.73676374 104.22356382 161.59277344 112.18530273 C161.11582031 112.72928711 160.63886719 113.27327148 160.14746094 113.83374023 C146.58883723 130.08989118 141.85883162 154.66966997 140.59277344 175.18530273 C140.47239259 177.00085191 140.47239259 177.00085191 140.34957981 178.85307884 C139.57928326 191.0167386 139.42230499 203.1470896 139.38745117 215.33227539 C139.3778465 217.49254024 139.36783502 219.65280332 139.35745239 221.81306458 C139.33067729 227.61965319 139.3095214 233.42624971 139.28945041 239.23286486 C139.26741958 245.32268707 139.24011542 251.41248571 139.21339417 257.50228882 C139.16369639 269.00832417 139.11867361 280.51437277 139.0753718 292.02043378 C139.02580219 305.13065367 138.9709579 318.24084988 138.91569221 331.3510468 C138.80222445 358.29577768 138.6960063 385.24053057 138.59277344 412.18530273 C111.53277344 412.18530273 84.47277344 412.18530273 56.59277344 412.18530273 C56.5729541 405.05525635 56.55313477 397.92520996 56.53271484 390.57910156 C56.46772593 367.69140921 56.39318187 344.80375453 56.31272183 321.91611205 C56.30020493 318.35309188 56.28777185 314.79007143 56.27539062 311.22705078 C56.27292463 310.51780237 56.27045864 309.80855396 56.26791792 309.07781317 C56.22833695 297.63656101 56.19552522 286.19529914 56.16527362 274.75401894 C56.13401402 262.98932959 56.09534432 251.22468091 56.04998338 239.46003741 C56.02475292 232.86251678 56.0030375 226.26501586 55.98942947 219.66745949 C55.97647986 213.44175874 55.95429019 207.21615552 55.92539024 200.99050903 C55.91641422 198.72079723 55.91064798 196.45106976 55.9085598 194.18134117 C55.89682094 183.34785064 55.710662 172.59169626 54.72128296 161.79789734 C54.61012663 160.56275618 54.61012663 160.56275618 54.49672472 159.30266267 C53.57567557 150.34446215 51.26061785 141.76515743 48.59277344 133.18530273 C48.26148438 132.11538086 47.93019531 131.04545898 47.58886719 129.94311523 C43.04342816 116.51600247 35.25541866 103.55496578 23.59277344 95.18530273 C22.81160156 94.61038086 22.03042969 94.03545898 21.22558594 93.44311523 C2.80698407 81.28579446 -23.18150917 80.20104506 -44.28222656 84.43530273 C-46.33240941 84.98796072 -48.37495733 85.57002856 -50.40722656 86.18530273 C-51.48359375 86.45213867 -52.55996094 86.71897461 -53.66894531 86.99389648 C-72.35473776 91.96940335 -86.33377874 104.84386199 -96.46972656 120.87280273 C-97.47223957 122.63052448 -98.45061718 124.40218284 -99.40722656 126.18530273 C-99.9009375 127.09666992 -100.39464844 128.00803711 -100.90332031 128.94702148 C-104.75557857 136.92169637 -106.79544044 145.13394325 -108.71972656 153.74780273 C-108.97431641 154.85172363 -109.22890625 155.95564453 -109.49121094 157.09301758 C-110.94213662 163.99282152 -111.66484726 170.70530426 -111.96934509 177.73710632 C-112.01045597 178.65017852 -112.05156685 179.56325073 -112.09392351 180.50399178 C-112.53235293 191.01419816 -112.58285908 201.52220404 -112.61254883 212.04003906 C-112.62215852 214.24015473 -112.63217024 216.44026868 -112.64254761 218.64038086 C-112.66926858 224.54183042 -112.69045287 230.44328771 -112.71054959 236.34476304 C-112.73261485 242.53866831 -112.75990176 248.73255068 -112.78660583 254.92643738 C-112.83625802 266.6236194 -112.88129722 278.32081433 -112.9246282 290.01802129 C-112.95941822 299.36635227 -112.99634981 308.71467219 -113.03491211 318.06298828 C-113.03763638 318.7235711 -113.04036065 319.38415392 -113.04316748 320.0647544 C-113.05684954 323.3795191 -113.07057136 326.69428363 -113.08430779 330.0090481 C-113.19770533 357.40111245 -113.30394535 384.79319825 -113.40722656 412.18530273 C-140.13722656 412.18530273 -166.86722656 412.18530273 -194.40722656 412.18530273 C-194.40722656 280.18530273 -194.40722656 148.18530273 -194.40722656 12.18530273 C-169.32722656 12.18530273 -144.24722656 12.18530273 -118.40722656 12.18530273 C-117.41722656 23.40530273 -116.42722656 34.62530273 -115.40722656 46.18530273 C-114.91222656 49.15530273 -114.91222656 49.15530273 -114.40722656 52.18530273 C-113.41142578 50.97293945 -113.41142578 50.97293945 -112.39550781 49.73608398 C-111.50371532 48.6565457 -110.61178062 47.57712488 -109.71972656 46.49780273 C-109.28466797 45.96735352 -108.84960938 45.4369043 -108.40136719 44.89038086 C-104.52988767 40.21592781 -100.52767232 35.83067913 -95.59472656 32.24780273 C-92.58850608 30.05643969 -92.58850608 30.05643969 -89.64160156 27.78686523 C-74.48088509 15.85604053 -57.67279802 8.55734462 -39.09472656 3.81030273 C-38.11705322 3.55933838 -37.13937988 3.30837402 -36.13208008 3.04980469 C-24.17654952 0.1628072 -12.23033754 -0.00127772 0 0 Z " fill="#FFFFFF" transform="translate(1445.4072265625,828.814697265625)"/>
<path d="M0 0 C2.35809529 -0.00218207 4.71571747 -0.02041309 7.07373047 -0.03930664 C22.53074565 -0.09960787 37.37392543 1.13576938 52.24951172 5.56030273 C53.29365234 5.85163086 54.33779297 6.14295898 55.41357422 6.44311523 C60.7043641 7.96622141 65.57190501 9.69971461 70.43066406 12.29272461 C73.44176868 13.87943526 76.64232099 14.97614598 79.82763672 16.15795898 C82.12451172 17.18530273 82.12451172 17.18530273 84.10888672 18.68139648 C86.07654678 20.28507393 86.07654678 20.28507393 88.49951172 21.13061523 C91.68288567 22.40964941 94.28376256 24.13989833 97.12451172 26.06030273 C98.13513672 26.73834961 99.14576172 27.41639648 100.18701172 28.11499023 C102.92421934 30.04413922 105.52633285 32.07456189 108.12451172 34.18530273 C108.88763672 34.72155273 109.65076172 35.25780273 110.43701172 35.81030273 C111.27232422 36.49092773 111.27232422 36.49092773 112.12451172 37.18530273 C112.12451172 37.84530273 112.12451172 38.50530273 112.12451172 39.18530273 C112.84638672 39.39155273 113.56826172 39.59780273 114.31201172 39.81030273 C117.32848015 41.28502064 118.83997895 42.98597543 120.87841797 45.61499023 C122.24538599 47.39909663 122.24538599 47.39909663 124.56201172 49.62280273 C126.59944594 51.66023695 128.53515949 53.71201288 130.43701172 55.87280273 C130.94876953 56.45416992 131.46052734 57.03553711 131.98779297 57.63452148 C133.12451172 59.18530273 133.12451172 59.18530273 133.12451172 61.18530273 C134.11451172 61.51530273 135.10451172 61.84530273 136.12451172 62.18530273 C136.45451172 62.84530273 136.78451172 63.50530273 137.12451172 64.18530273 C139.043167 62.26664745 138.46113387 58.80156266 138.58935547 56.24780273 C138.668123 54.77905228 138.74689937 53.3103023 138.82568359 51.84155273 C138.94337725 49.54084709 139.05927975 47.24006111 139.17407227 44.93920898 C139.2870302 42.70847348 139.40682747 40.47816757 139.52685547 38.24780273 C139.57228737 37.26855835 139.57228737 37.26855835 139.61863708 36.26953125 C140.05777109 28.17031042 141.17062577 20.29333327 142.12451172 12.18530273 C167.53451172 12.18530273 192.94451172 12.18530273 219.12451172 12.18530273 C219.1465368 63.12591736 219.16500877 114.0665275 219.17557705 165.00714552 C219.17682783 171.01436655 219.17812214 177.02158758 219.17944336 183.02880859 C219.17983683 184.82278399 219.17983683 184.82278399 219.18023824 186.65300132 C219.18459545 206.04544016 219.19248327 225.43787605 219.20166451 244.83031314 C219.21099965 264.71288597 219.21656703 284.59545724 219.21860021 304.47803217 C219.21997573 316.75721262 219.22432788 329.03638473 219.23242819 341.31556261 C219.23769392 349.72361529 219.23931641 358.13166363 219.2380131 366.53971785 C219.23736944 371.39846178 219.23839027 376.2571911 219.24371719 381.11593246 C219.24855028 385.55639075 219.24885097 389.99682446 219.24541061 394.43728382 C219.24498483 396.05101957 219.24628133 397.66475679 219.2493949 399.27848958 C219.25335749 401.45745947 219.251276 403.63633844 219.24755955 405.81530666 C219.24793927 407.030032 219.24831899 408.24475734 219.24871022 409.49629253 C219.12451172 412.18530273 219.12451172 412.18530273 218.12451172 413.18530273 C215.75150303 413.28025007 213.40772469 413.31089593 211.03442383 413.29882812 C210.29300644 413.29897415 209.55158905 413.29912018 208.78770447 413.29927063 C206.32572551 413.29857138 203.86382128 413.29077848 201.40185547 413.28295898 C199.69934633 413.28109485 197.99683665 413.27967092 196.29432678 413.27867126 C191.80458099 413.27484576 187.31486734 413.2650152 182.82513428 413.25396729 C178.24719681 413.24375387 173.66925416 413.23917379 169.09130859 413.23413086 C160.10236215 413.22339296 151.1134396 413.20631615 142.12451172 413.18530273 C141.7061562 409.13980755 141.29169944 405.0939319 140.88053894 401.04769897 C140.74074905 399.67711134 140.59997417 398.30662374 140.45811462 396.93624878 C139.26105411 385.36210199 138.49674093 373.81425672 138.12451172 362.18530273 C137.46451172 362.18530273 136.80451172 362.18530273 136.12451172 362.18530273 C135.02797466 363.47388866 134.00029065 364.82101217 132.99951172 366.18530273 C112.42848236 392.34306849 84.77661207 409.591215 53.24951172 419.43530273 C52.15678955 419.7864917 52.15678955 419.7864917 51.04199219 420.14477539 C35.15275137 424.88200363 18.90948517 425.73684225 2.43701172 425.62280273 C1.47306488 425.61909668 0.50911804 425.61539062 -0.48403931 425.61157227 C-50.9627855 425.33578635 -96.33487685 406.09383576 -132.40478516 370.6965332 C-136.20997796 366.78648283 -139.53815674 362.49221691 -142.87548828 358.18530273 C-143.76542474 357.11785873 -144.66018948 356.05439061 -145.56298828 354.99780273 C-151.74894542 347.47434135 -156.84519096 339.52527254 -161.87548828 331.18530273 C-162.40271484 330.34999023 -162.92994141 329.51467773 -163.47314453 328.65405273 C-184.35990795 295.23523127 -192.67625132 254.63198418 -192.39697266 215.72631836 C-192.37549196 212.18590885 -192.3969494 208.64752749 -192.42236328 205.10717773 C-192.44993217 183.02526242 -189.83045391 161.9751511 -182.52001953 141.09936523 C-181.64950293 138.51419471 -180.97435371 135.89326443 -180.31298828 133.24780273 C-172.5632587 104.48185735 -153.06279075 76.23946243 -132.20751953 55.53686523 C-129.81396217 53.22228038 -129.81396217 53.22228038 -127.81298828 50.49780273 C-125.82884493 48.12963163 -124.58400139 47.49852121 -121.87548828 46.18530273 C-121.00923828 45.31905273 -120.14298828 44.45280273 -119.25048828 43.56030273 C-118.07486328 42.38467773 -118.07486328 42.38467773 -116.87548828 41.18530273 C-116.21548828 41.18530273 -115.55548828 41.18530273 -114.87548828 41.18530273 C-114.87548828 40.52530273 -114.87548828 39.86530273 -114.87548828 39.18530273 C-112.82641891 37.527254 -110.78410069 36.00180677 -108.62548828 34.49780273 C-107.98796631 34.04937012 -107.35044434 33.6009375 -106.69360352 33.13891602 C-100.94070306 29.14144096 -95.01178303 25.56526936 -88.87548828 22.18530273 C-87.7022833 21.51998734 -86.52910741 20.85462065 -85.35595703 20.18920898 C-72.05095903 12.74524945 -58.47994738 8.16615087 -43.75048828 4.37280273 C-42.59524658 4.07043701 -41.44000488 3.76807129 -40.24975586 3.45654297 C-26.94103612 0.15978377 -13.6293895 -0.00140307 0 0 Z M-13.87548828 85.18530273 C-15.07431641 85.45213867 -16.27314453 85.71897461 -17.50830078 85.99389648 C-36.75560808 90.51440185 -52.91250448 100.49725534 -67.87548828 113.18530273 C-68.83068359 113.9374707 -68.83068359 113.9374707 -69.80517578 114.70483398 C-92.32911759 132.71360773 -107.03968896 164.93057717 -110.43798828 193.06030273 C-113.89653861 228.94984956 -106.69297261 266.42241756 -83.87548828 295.18530273 C-83.21548828 295.18530273 -82.55548828 295.18530273 -81.87548828 295.18530273 C-81.62798828 295.96905273 -81.38048828 296.75280273 -81.12548828 297.56030273 C-79.66624325 300.6247173 -78.82533872 300.80256034 -75.87548828 302.18530273 C-75.20882161 303.51863607 -74.54215495 304.8519694 -73.87548828 306.18530273 C-72.22163595 307.53449806 -70.55378629 308.86664002 -68.87548828 310.18530273 C-67.82361328 311.51561523 -67.82361328 311.51561523 -66.75048828 312.87280273 C-65.01427851 315.43778062 -65.01427851 315.43778062 -61.87548828 316.18530273 C-61.21548828 316.88655273 -60.55548828 317.58780273 -59.87548828 318.31030273 C-42.00632446 336.70814004 -11.26721675 342.63854937 13.12451172 343.18530273 C45.71338046 343.40233341 75.08259566 332.49445187 98.56152344 309.73266602 C105.52473888 302.83906097 112.48189535 295.89444439 117.12451172 287.18530273 C117.60146484 286.35772461 118.07841797 285.53014648 118.56982422 284.67749023 C122.32505311 278.0539458 125.3233424 271.25696639 128.12451172 264.18530273 C128.43517578 263.47760742 128.74583984 262.76991211 129.06591797 262.04077148 C142.03075039 231.70795601 140.10557104 193.80163912 129.12451172 163.18530273 C128.76744141 162.13600586 128.41037109 161.08670898 128.04248047 160.00561523 C123.68472584 147.85054044 117.3975177 137.09248273 109.12451172 127.18530273 C108.37427734 126.22881836 107.62404297 125.27233398 106.85107422 124.28686523 C98.94679927 114.38782059 89.79308256 106.95804715 79.12451172 100.18530273 C78.53927734 99.77924805 77.95404297 99.37319336 77.35107422 98.95483398 C51.98940753 81.8440152 15.27126824 77.26424302 -13.87548828 85.18530273 Z " fill="#FEFEFE" transform="translate(404.87548828125,828.814697265625)"/>
<path d="M0 0 C0 0.66 0 1.32 0 2 C0.6909375 2.21011719 1.381875 2.42023437 2.09375 2.63671875 C5.89932619 4.42186134 8.48833017 6.92311375 11.5 9.8125 C12.05558594 10.33392578 12.61117187 10.85535156 13.18359375 11.39257812 C18.60799352 16.50427721 23.79669242 21.80113867 28.8125 27.3125 C29.56563477 28.13717773 29.56563477 28.13717773 30.33398438 28.97851562 C31.55703968 30.31805239 32.77867008 31.65888992 34 33 C34.04789169 32.44956024 34.09578339 31.89912048 34.14512634 31.33200073 C34.64527595 25.58892261 35.14871936 19.8461399 35.65405273 14.10351562 C35.842068 11.96198771 36.02925105 9.82038656 36.21557617 7.67871094 C36.48396106 4.59550533 36.75536458 1.51257787 37.02734375 -1.5703125 C37.10967758 -2.52366486 37.19201141 -3.47701721 37.27684021 -4.45925903 C37.35684769 -5.35973969 37.43685516 -6.26022034 37.51928711 -7.18798828 C37.58812607 -7.97408478 37.65696503 -8.76018127 37.72789001 -9.57009888 C38.04414718 -12.39422764 38.53281401 -15.19688404 39 -18 C64.08 -18 89.16 -18 115 -18 C115 114.33 115 246.66 115 383 C89.92 383 64.84 383 39 383 C36.70145603 362.31310428 36.70145603 362.31310428 36.1484375 355.8046875 C36.05280014 354.71089279 36.05280014 354.71089279 35.95523071 353.59500122 C35.75983092 351.35516807 35.56732924 349.11509865 35.375 346.875 C35.23977987 345.31899332 35.10436377 343.76300367 34.96875 342.20703125 C34.6435918 338.47154605 34.32102388 334.73584305 34 331 C33.21496094 331.92941406 32.42992188 332.85882812 31.62109375 333.81640625 C20.30844285 347.15316087 20.30844285 347.15316087 15 352 C14.34 352 13.68 352 13 352 C12.78859375 352.56332031 12.5771875 353.12664062 12.359375 353.70703125 C10.54476941 356.76787458 8.05957107 358.59855363 5.25 360.6875 C4.38435425 361.33887939 4.38435425 361.33887939 3.5012207 362.00341797 C-14.82209986 375.6130501 -34.00224976 384.77652672 -56 391 C-56.85754883 391.24298828 -57.71509766 391.48597656 -58.59863281 391.73632812 C-85.39396599 398.82952182 -120.31069203 398.14688214 -147 391 C-148.26142822 390.67854004 -148.26142822 390.67854004 -149.54833984 390.35058594 C-188.87853844 380.15634091 -224.04234951 357.12938913 -249 325 C-249.43070801 324.44570312 -249.86141602 323.89140625 -250.30517578 323.3203125 C-269.60314605 298.28510783 -282.77752111 269.89966198 -290.3125 239.25 C-290.67649902 237.77901855 -290.67649902 237.77901855 -291.04785156 236.27832031 C-294.94539027 219.62419807 -295.31783504 203.41050525 -295.26074219 186.3737793 C-295.25003211 182.5738933 -295.26068214 178.77448096 -295.2734375 174.97460938 C-295.28619286 156.93919204 -294.22305283 140.2243093 -289.6875 122.6875 C-289.40455078 121.52927734 -289.12160156 120.37105469 -288.83007812 119.17773438 C-287.10401648 112.3615131 -284.93166452 105.9867526 -282.09228516 99.55273438 C-281.13754883 97.32145967 -280.36694061 95.13895998 -279.6875 92.8125 C-278.18962992 88.11109276 -276.09640204 83.70738936 -274 79.25 C-273.48312622 78.14942261 -273.48312622 78.14942261 -272.95581055 77.02661133 C-270.37267037 71.60827198 -267.44074274 66.58931426 -264.0625 61.625 C-261.5188279 57.8380368 -259.20778828 53.99100189 -257 50 C-256.34 50 -255.68 50 -255 50 C-254.731875 49.030625 -254.46375 48.06125 -254.1875 47.0625 C-253.795625 46.051875 -253.40375 45.04125 -253 44 C-252.01 43.67 -251.02 43.34 -250 43 C-249.29255361 41.6878484 -248.63372701 40.34930067 -248 39 C-239.19818144 27.06434714 -228.56998518 17.18194024 -217 8 C-215.87156146 7.04571794 -214.74584908 6.08818489 -213.625 5.125 C-211.15379434 3.12450018 -208.72851277 1.62338889 -206 0 C-204.84377723 -0.74078489 -203.69032925 -1.4859111 -202.5390625 -2.234375 C-193.67457107 -7.9594538 -184.78704149 -13.01016895 -175 -17 C-174.2898877 -17.2897168 -173.57977539 -17.57943359 -172.84814453 -17.87792969 C-162.34090145 -22.05894158 -151.66774102 -24.9652073 -140.625 -27.375 C-139.48522705 -27.62580322 -138.3454541 -27.87660645 -137.17114258 -28.13500977 C-91.67241017 -37.56450957 -37.17629613 -29.13817805 0 0 Z M-159 73 C-159.72445313 73.51691406 -160.44890625 74.03382813 -161.1953125 74.56640625 C-174.85846321 84.72806852 -185.82242986 96.67982591 -195 111 C-195.40734375 111.58652344 -195.8146875 112.17304687 -196.234375 112.77734375 C-203.11608667 122.98819516 -207.13916725 134.65442775 -210.375 146.4375 C-210.62564209 147.34838379 -210.87628418 148.25926758 -211.13452148 149.19775391 C-213.76731069 159.23222721 -214.18655063 168.79080407 -214.18530273 179.15454102 C-214.18747719 181.16639776 -214.20566069 183.17769366 -214.22460938 185.18945312 C-214.24286748 197.58670875 -212.91993072 209.34689261 -209.1875 221.1875 C-208.92324219 222.04335693 -208.65898438 222.89921387 -208.38671875 223.78100586 C-206.38938106 230.10010698 -204.0797656 236.12129848 -201 242 C-200.50371094 242.95390625 -200.00742188 243.9078125 -199.49609375 244.890625 C-189.55978377 263.51809334 -175.91474255 280.57215238 -158 292 C-157.31035156 292.49628906 -156.62070313 292.99257812 -155.91015625 293.50390625 C-130.22910685 311.82018543 -96.5779531 315.97587825 -65.97460938 311.53808594 C-54.7415888 309.50611143 -43.26961598 306.48576604 -33.71728516 300.09790039 C-32 299 -32 299 -29.4296875 297.984375 C-25.9763299 296.58526549 -23.11515769 294.43289971 -20.125 292.25 C-19.50439697 291.80116455 -18.88379395 291.3523291 -18.24438477 290.88989258 C-0.82173712 278.18411366 12.402582 262.11199787 20.9375 242.375 C21.6452711 240.79292342 22.39577613 239.22927805 23.1875 237.6875 C26.19253346 231.67743308 28.05645607 225.61569029 29.6875 219.125 C29.88980225 218.32344482 30.09210449 217.52188965 30.30053711 216.69604492 C33.05428327 205.24179131 34.36976019 194.03005702 34.3125 182.25 C34.30404053 180.4081311 34.30404053 180.4081311 34.29541016 178.52905273 C34.16904571 169.03608009 33.35476696 160.18796341 31 151 C30.79068848 150.16388184 30.58137695 149.32776367 30.36572266 148.46630859 C27.56179032 137.47481447 24.36769314 127.0358373 19 117 C18.45472656 115.97648437 17.90945313 114.95296875 17.34765625 113.8984375 C9.09241783 99.11014191 -3.44563416 83.02370682 -18 74 C-18.62132813 73.56171875 -19.24265625 73.1234375 -19.8828125 72.671875 C-60.15708729 44.43529858 -118.99626854 43.58549157 -159 73 Z " fill="#FFFFFF" transform="translate(2176,859)"/>
<path d="M0 0 C2.4305181 -0.00218223 4.86057738 -0.02041087 7.29101562 -0.03930664 C22.40218882 -0.09560119 37.16898226 1.05749878 51.82226562 4.93530273 C52.8408667 5.19988281 53.85946777 5.46446289 54.90893555 5.73706055 C74.31262478 10.90810616 92.62030859 18.99569282 108.69726562 31.18530273 C110.59274065 32.5399709 112.48858655 33.89412024 114.38476562 35.24780273 C118.67551469 38.38663195 122.80897036 41.55622715 126.69726562 45.18530273 C126.69726562 45.84530273 126.69726562 46.50530273 126.69726562 47.18530273 C127.29539062 47.45342773 127.89351562 47.72155273 128.50976562 47.99780273 C130.69574416 49.1844768 132.11059156 50.28129386 133.69726562 52.18530273 C133.69726562 52.84530273 133.69726562 53.50530273 133.69726562 54.18530273 C134.24125 54.38639648 134.78523438 54.58749023 135.34570312 54.79467773 C138.65996312 56.75460557 140.87916039 59.51838554 143.32226562 62.43530273 C144.10960083 63.36705322 144.10960083 63.36705322 144.9128418 64.31762695 C153.2181023 74.27490801 160.50948632 84.77979979 166.69726562 96.18530273 C167.27089844 97.22686523 167.84453125 98.26842773 168.43554688 99.34155273 C173.22954174 108.44057624 176.69341458 117.82474779 179.85644531 127.59399414 C180.40083539 129.27173988 180.95553064 130.94619122 181.52246094 132.61645508 C193.69243792 168.67755375 194.71748884 210.12463309 182.69726562 246.18530273 C84.02726562 246.18530273 -14.64273438 246.18530273 -116.30273438 246.18530273 C-114.65273438 250.47530273 -113.00273438 254.76530273 -111.30273438 259.18530273 C-110.84898437 260.64967773 -110.39523437 262.11405273 -109.92773438 263.62280273 C-106.26668919 274.83218267 -99.76582028 287.96128705 -91.30273438 296.18530273 C-90.62210938 297.32999023 -90.62210938 297.32999023 -89.92773438 298.49780273 C-87.33839237 302.78017605 -84.40094087 306.30673754 -80.49023438 309.43530273 C-79.76835938 310.01280273 -79.04648437 310.59030273 -78.30273438 311.18530273 C-78.30273438 311.84530273 -78.30273438 312.50530273 -78.30273438 313.18530273 C-77.64273438 313.37092773 -76.98273438 313.55655273 -76.30273438 313.74780273 C-72.71855707 315.46522102 -70.26383047 317.74562706 -67.32617188 320.38842773 C-58.42565403 328.2923625 -47.41653317 333.16684901 -36.30273438 337.18530273 C-35.39910156 337.52432617 -34.49546875 337.86334961 -33.56445312 338.21264648 C-1.60610827 349.1970322 34.23635435 344.67513487 64.69726562 331.18530273 C66.36528516 330.18756099 68.03200444 329.18764148 69.69726562 328.18530273 C70.49648437 327.86948242 71.29570313 327.55366211 72.11914062 327.22827148 C84.05221442 322.40080072 94.54760602 313.48260246 103.65429688 304.59155273 C105.69726562 303.18530273 105.69726562 303.18530273 107.49723816 303.29693604 C110.65964188 304.57390834 112.51735382 306.59978988 114.94067383 308.99291992 C115.4500499 309.49222015 115.95942596 309.99152039 116.48423767 310.50595093 C118.16353501 312.15677863 119.83131384 313.81867168 121.49804688 315.48217773 C122.66035596 316.63484756 123.82289067 317.78728993 124.98564148 318.93951416 C127.41938779 321.35530337 129.84685745 323.77720894 132.27075195 326.20288086 C135.38076402 329.31319832 138.51092491 332.40234363 141.64677143 335.48658371 C144.05303054 337.85952891 146.4455725 340.24594223 148.8344326 342.63639069 C149.98310234 343.78151534 151.1366513 344.9217669 152.29506874 346.05702972 C153.91157114 347.64420998 155.50803148 349.24918899 157.10083008 350.86010742 C158.01476028 351.76976257 158.92869049 352.67941772 159.87031555 353.61663818 C161.69726562 356.18530273 161.69726562 356.18530273 161.56480408 358.9065094 C160.617161 361.39571633 159.65516726 362.72994012 157.77539062 364.60327148 C157.16912842 365.21267578 156.56286621 365.82208008 155.93823242 366.44995117 C155.28121338 367.08449219 154.62419434 367.7190332 153.94726562 368.37280273 C152.92789917 369.36908691 152.92789917 369.36908691 151.88793945 370.38549805 C127.00407108 394.33763637 94.31104947 410.1754657 61.19726562 418.99780273 C60.16730469 419.2758374 59.13734375 419.55387207 58.07617188 419.84033203 C40.35512153 424.33767832 22.67265203 425.74543511 4.44726562 425.62280273 C3.46691345 425.61942902 2.48656128 425.6160553 1.47650146 425.61257935 C-33.68030072 425.43783522 -67.91464854 417.5478899 -98.30273438 399.18530273 C-99.13933594 398.69030273 -99.9759375 398.19530273 -100.83789062 397.68530273 C-113.89057545 389.68837065 -125.87287411 380.22720673 -136.85498047 369.58618164 C-138.21794878 368.26734316 -139.59772165 366.96593515 -140.97851562 365.66577148 C-147.5255649 359.36309107 -152.94838175 352.49413043 -158.30273438 345.18530273 C-158.90730469 344.37577148 -159.511875 343.56624023 -160.13476562 342.73217773 C-176.28395484 320.49394997 -186.78824857 295.49723154 -193.61523438 268.99780273 C-193.85773926 268.07346436 -194.10024414 267.14912598 -194.35009766 266.19677734 C-198.45241529 249.54542656 -198.62191885 232.96255139 -198.56347656 215.91088867 C-198.55275455 212.19229835 -198.56342695 208.47419097 -198.57617188 204.75561523 C-198.58695901 188.59547489 -198.37194291 172.75503437 -193.80273438 157.12280273 C-193.37525684 155.59036056 -192.94816939 154.05780951 -192.52148438 152.52514648 C-192.31346191 151.79593994 -192.10543945 151.0667334 -191.89111328 150.31542969 C-191.33260936 148.29346011 -190.83864519 146.26588019 -190.35742188 144.22436523 C-189.20849376 139.57051564 -187.59090422 135.11407821 -185.92773438 130.62280273 C-185.63640625 129.81133789 -185.34507812 128.99987305 -185.04492188 128.16381836 C-183.20719604 123.17052383 -181.03050188 118.75072414 -178.30273438 114.18530273 C-177.86960937 113.15405273 -177.43648437 112.12280273 -176.99023438 111.06030273 C-172.78481896 101.09434434 -167.13977954 92.2271141 -160.99023438 83.37280273 C-160.36721436 82.47021729 -159.74419434 81.56763184 -159.10229492 80.63769531 C-158.51230713 79.80133545 -157.92231934 78.96497559 -157.31445312 78.10327148 C-156.78295654 77.34812256 -156.25145996 76.59297363 -155.70385742 75.81494141 C-155.24148682 75.27716064 -154.77911621 74.73937988 -154.30273438 74.18530273 C-153.64273438 74.18530273 -152.98273437 74.18530273 -152.30273438 74.18530273 C-152.02429688 73.19530273 -152.02429688 73.19530273 -151.74023438 72.18530273 C-148.76218563 65.97024448 -143.72375643 61.32239851 -138.30273438 57.18530273 C-136.63032063 55.52440303 -134.96463917 53.85671771 -133.30273438 52.18530273 C-131.30346443 50.2450506 -129.27689718 48.33618802 -127.24023438 46.43530273 C-126.72396484 45.9415918 -126.20769531 45.44788086 -125.67578125 44.93920898 C-122.91897772 42.3755573 -120.96324931 40.96305648 -117.30273438 40.18530273 C-116.97273437 39.19530273 -116.64273438 38.20530273 -116.30273438 37.18530273 C-103.311108 26.92396562 -85.59716012 16.61560209 -69.63232422 11.91381836 C-67.15558844 11.13928686 -64.75750176 10.22980067 -62.33398438 9.30249023 C-56.15193929 7.04395292 -49.90026201 5.46414892 -43.49023438 3.99780273 C-42.41708984 3.73805664 -41.34394531 3.47831055 -40.23828125 3.21069336 C-26.93806896 0.13407521 -13.58123147 -0.00135704 0 0 Z M-6.44433594 80.27758789 C-33.63454923 81.66967942 -59.08479146 93.07026622 -79.30273438 111.18530273 C-79.30273438 111.84530273 -79.30273438 112.50530273 -79.30273438 113.18530273 C-79.87378906 113.42249023 -80.44484375 113.65967773 -81.03320312 113.90405273 C-88.85721024 118.32104815 -94.49208647 127.80043403 -99.30273438 135.18530273 C-99.80417969 135.94069336 -100.305625 136.69608398 -100.82226562 137.47436523 C-107.190467 147.52234524 -111.66380347 158.62361855 -115.24023438 169.93530273 C-115.5574646 170.9361792 -115.5574646 170.9361792 -115.88110352 171.95727539 C-116.86917956 175.22788695 -117.30273438 177.72546203 -117.30273438 181.18530273 C-42.06273437 181.18530273 33.17726563 181.18530273 110.69726562 181.18530273 C105.63540143 154.61051569 99.14817117 135.84170292 82.69726562 115.18530273 C82.19710937 114.53045898 81.69695312 113.87561523 81.18164062 113.20092773 C70.99493198 100.43826977 55.78595209 91.77593158 40.69726562 86.18530273 C39.77816406 85.8153418 38.8590625 85.44538086 37.91210938 85.06420898 C23.86985042 79.79111862 8.36434672 79.63945724 -6.44433594 80.27758789 Z " fill="#FFFFFF" transform="translate(1015.302734375,828.814697265625)"/>
<path d="M0 0 C2.46547569 0.005373 4.93076991 0.0000098 7.39624023 -0.00634766 C22.18727634 -0.01671149 36.08076249 0.90556125 50.52709961 4.38037109 C52.42782227 4.8115625 52.42782227 4.8115625 54.36694336 5.25146484 C61.52332603 6.93922142 68.17242336 9.04521857 74.89111328 12.0402832 C77.10804056 13.00271201 79.27263008 13.76756143 81.58959961 14.44287109 C86.29100685 15.94074117 90.69471025 18.03396905 95.15209961 20.13037109 C95.88581787 20.47495361 96.61953613 20.81953613 97.37548828 21.17456055 C101.17792526 22.98733511 104.83075884 24.88653528 108.40209961 27.13037109 C109.37663086 27.72591797 110.35116211 28.32146484 111.35522461 28.93505859 C125.09749863 37.56468564 139.23961657 47.24461701 150.40209961 59.13037109 C150.40209961 59.79037109 150.40209961 60.45037109 150.40209961 61.13037109 C151.00022461 61.39849609 151.59834961 61.66662109 152.21459961 61.94287109 C154.40057815 63.12954516 155.81542555 64.22636222 157.40209961 66.13037109 C157.40209961 66.79037109 157.40209961 67.45037109 157.40209961 68.13037109 C157.95639648 68.33146484 158.51069336 68.53255859 159.08178711 68.73974609 C162.31516193 70.67759363 164.28452935 73.42105779 166.52709961 76.38037109 C167.00356934 76.99936279 167.48003906 77.61835449 167.97094727 78.25610352 C175.04888134 87.51213326 182.03577732 96.75756736 187.40209961 107.13037109 C188.10712921 108.42183042 188.81438339 109.71207647 189.52319336 111.00146484 C194.16929359 119.50917094 198.28840437 127.92550954 201.40209961 137.13037109 C201.67795898 137.93635742 201.95381836 138.74234375 202.23803711 139.57275391 C205.97398472 150.56905269 209.38703988 161.43109531 211.07836914 172.94824219 C211.30858414 174.50002322 211.55328698 176.04968492 211.80786133 177.59765625 C215.42075107 199.62043412 215.83890307 222.05441348 212.40209961 244.13037109 C212.22469238 245.36883789 212.22469238 245.36883789 212.04370117 246.63232422 C206.11089385 287.42226155 187.18882461 325.49641355 159.51147461 355.79833984 C157.63457301 357.87335884 155.82849509 359.9901417 154.02709961 362.13037109 C142.98564154 374.73835181 128.81337781 385.65091189 114.40209961 394.13037109 C113.81203125 394.4780957 113.22196289 394.82582031 112.61401367 395.18408203 C98.13291826 403.66387025 83.27801082 410.67625829 67.40209961 416.13037109 C66.43312744 416.46681641 66.43312744 416.46681641 65.44458008 416.81005859 C60.48777665 418.49579319 55.48796906 419.89004171 50.40209961 421.13037109 C49.59450195 421.32937012 48.7869043 421.52836914 47.95483398 421.73339844 C2.77857077 432.22013178 -49.33832326 425.86146666 -90.59790039 405.13037109 C-91.40227539 404.73027832 -92.20665039 404.33018555 -93.03540039 403.91796875 C-102.34869763 399.2523374 -111.2785416 394.43861533 -119.59790039 388.13037109 C-121.41025538 386.83850097 -123.22276229 385.54684396 -125.03540039 384.25537109 C-136.56629618 375.82134446 -136.56629618 375.82134446 -141.59790039 371.13037109 C-141.59790039 370.47037109 -141.59790039 369.81037109 -141.59790039 369.13037109 C-142.45448242 368.76298828 -142.45448242 368.76298828 -143.32836914 368.38818359 C-145.99223198 366.91182588 -147.77851111 365.17891363 -149.91040039 363.00537109 C-150.6284082 362.28091797 -151.34641602 361.55646484 -152.08618164 360.81005859 C-163.67149825 348.4499852 -174.33834581 334.94741934 -182.59790039 320.13037109 C-183.0178125 319.38335938 -183.43772461 318.63634766 -183.87036133 317.86669922 C-201.79252402 285.68566897 -209.99145285 253.04637203 -209.85864258 216.28857422 C-209.8479434 212.76951787 -209.85857707 209.25097427 -209.87133789 205.73193359 C-209.88505449 188.25436968 -209.00112853 172.09902556 -203.97290039 155.25537109 C-203.44394165 153.45265747 -203.44394165 153.45265747 -202.90429688 151.61352539 C-197.9532509 135.17051129 -190.96041315 120.0922639 -182.59790039 105.13037109 C-182.2561377 104.51540771 -181.914375 103.90044434 -181.56225586 103.2668457 C-178.57772886 97.95919263 -175.15210682 93.06546125 -171.59790039 88.13037109 C-171.14801758 87.49486328 -170.69813477 86.85935547 -170.23461914 86.20458984 C-159.35052215 71.21086331 -146.40271567 57.38638311 -131.84008789 45.93505859 C-129.65029251 44.25126848 -129.65029251 44.25126848 -128.10571289 42.57568359 C-126.13708969 40.68866135 -123.95290569 39.50124661 -121.59790039 38.13037109 C-119.71780054 36.86709483 -117.84310071 35.59575729 -115.97290039 34.31787109 C-110.33927602 30.55526795 -104.61456269 27.23599626 -98.59790039 24.13037109 C-98.02088379 23.82631348 -97.44386719 23.52225586 -96.84936523 23.20898438 C-80.3832238 14.54690578 -63.69156853 8.42599015 -45.59790039 4.13037109 C-44.35008789 3.82099609 -43.10227539 3.51162109 -41.81665039 3.19287109 C-28.04576806 -0.03274098 -14.06730962 -0.03636771 0 0 Z M-30.59790039 86.13037109 C-32.66000027 86.56975315 -34.72246615 87.00742323 -36.78540039 87.44287109 C-52.64465278 91.51158964 -70.36185738 101.49250513 -82.59790039 112.13037109 C-82.59790039 112.79037109 -82.59790039 113.45037109 -82.59790039 114.13037109 C-83.12899414 114.33791016 -83.66008789 114.54544922 -84.20727539 114.75927734 C-87.57321657 116.68974361 -90.13852237 119.33097073 -92.84790039 122.06787109 C-93.42564209 122.65125244 -94.00338379 123.23463379 -94.59863281 123.83569336 C-103.34985314 132.83418555 -109.7151463 143.1124629 -115.59790039 154.13037109 C-116.13415039 155.13455078 -116.67040039 156.13873047 -117.22290039 157.17333984 C-124.00441488 170.8246698 -128.67578776 186.72583879 -128.83618164 201.99365234 C-128.84425339 202.74390182 -128.85232513 203.49415131 -128.86064148 204.26713562 C-128.87442193 205.85474383 -128.88517086 207.44238091 -128.89306641 209.0300293 C-128.90448157 210.61898782 -128.92476324 212.20791129 -128.95458984 213.79663086 C-129.43971445 239.72505031 -121.11279119 266.19758192 -105.59790039 287.13037109 C-105.09000977 287.82904297 -104.58211914 288.52771484 -104.05883789 289.24755859 C-96.58331269 299.20311585 -88.03521011 309.18578145 -77.59790039 316.13037109 C-76.93790039 316.13037109 -76.27790039 316.13037109 -75.59790039 316.13037109 C-75.59790039 316.79037109 -75.59790039 317.45037109 -75.59790039 318.13037109 C-73.27547457 319.79971002 -70.96892177 321.3250223 -68.53540039 322.81787109 C-67.80732178 323.26485352 -67.07924316 323.71183594 -66.32910156 324.17236328 C-38.27182025 341.1009146 -4.04265246 347.72893354 28.32788086 340.91943359 C32.74765376 339.7850065 37.14252095 338.58150866 41.52709961 337.31787109 C42.78091431 336.96366089 42.78091431 336.96366089 44.06005859 336.60229492 C49.2627921 335.04357916 53.75027243 332.99490656 58.43481445 330.2512207 C60.68084888 328.97155527 62.99988807 328.07644756 65.40209961 327.13037109 C67.260075 326.04655212 69.09306768 324.91904613 70.90209961 323.75537109 C71.81991211 323.17013672 72.73772461 322.58490234 73.68334961 321.98193359 C76.37543771 320.14852876 78.87971014 318.18946454 81.40209961 316.13037109 C82.28510742 315.44716797 83.16811523 314.76396484 84.07788086 314.06005859 C84.94799805 313.38201172 85.81811523 312.70396484 86.71459961 312.00537109 C87.59760742 311.32216797 88.48061523 310.63896484 89.39038086 309.93505859 C90.05424805 309.33951172 90.71811523 308.74396484 91.40209961 308.13037109 C91.40209961 307.47037109 91.40209961 306.81037109 91.40209961 306.13037109 C92.72209961 305.47037109 94.04209961 304.81037109 95.40209961 304.13037109 C95.40209961 303.47037109 95.40209961 302.81037109 95.40209961 302.13037109 C96.06209961 302.13037109 96.72209961 302.13037109 97.40209961 302.13037109 C99.24134785 300.15833197 99.24134785 300.15833197 101.15209961 297.63037109 C101.86624023 296.71384766 102.58038086 295.79732422 103.31616211 294.85302734 C104.00452148 293.95455078 104.69288086 293.05607422 105.40209961 292.13037109 C105.94608398 291.42783203 106.49006836 290.72529297 107.05053711 290.00146484 C112.33553727 283.0806313 117.20104605 276.27850744 120.40209961 268.13037109 C121.02838506 266.75097908 121.65891845 265.37351118 122.29272461 263.99755859 C130.61886497 245.29506547 133.3328431 225.48262879 132.40209961 205.13037109 C132.35641846 204.08042969 132.35641846 204.08042969 132.30981445 203.00927734 C130.98228706 177.29478938 121.33079993 154.7274877 106.40209961 134.13037109 C105.70084961 133.06818359 104.99959961 132.00599609 104.27709961 130.91162109 C102.24147339 127.89210887 100.03657995 125.64510233 97.40209961 123.13037109 C96.82588867 122.53353516 96.24967773 121.93669922 95.65600586 121.32177734 C88.20577253 113.63169747 80.07877588 107.32015247 70.96459961 101.71240234 C69.46369854 100.78577897 67.97638353 99.83503056 66.52709961 98.82958984 C39.64263495 80.40653036 -0.10610656 77.43669403 -30.59790039 86.13037109 Z " fill="#FFFFFF" transform="translate(2545.597900390625,828.86962890625)"/>
<path d="M0 0 C1.19625 0.495 2.3925 0.99 3.625 1.5 C6.96529123 2.98457388 9.19358409 4.69729976 12 7 C12.99 7.495 13.98 7.99 15 8.5 C18.04859293 10.02429646 20.39054255 11.82545212 23 14 C23.66 14.33 24.32 14.66 25 15 C25 15.66 25 16.32 25 17 C25.53238281 17.21011719 26.06476562 17.42023437 26.61328125 17.63671875 C38.428414 24.3854607 52.42719058 41.97962742 56 55 C54.89418719 58.80077383 52.29175361 60.62419245 49.25 63 C44.79884227 66.54465563 40.43317675 70.15791874 36.125 73.875 C34.93374707 74.89991782 33.74234021 75.92465674 32.55078125 76.94921875 C31.96119629 77.45630371 31.37161133 77.96338867 30.76416016 78.48583984 C9.65429081 96.60421926 9.65429081 96.60421926 1 103 C-2.66048407 101.52451854 -4.3078677 99.58781391 -6.625 96.4375 C-21.11489039 77.80764093 -43.48635231 66.56358076 -66.68359375 63.28125 C-79.13484756 62.22531328 -90.90395344 62.59245518 -103 66 C-104.03640625 66.26683594 -105.0728125 66.53367187 -106.140625 66.80859375 C-116.98436267 69.936595 -126.23922827 76.14221734 -132 86 C-136.52114481 95.04228962 -134.01857146 105.87241487 -131 115 C-130.34 115 -129.68 115 -129 115 C-128.4225 115.9075 -127.845 116.815 -127.25 117.75 C-124.84443369 121.22470689 -122.52223771 122.758576 -119 125 C-119 125.66 -119 126.32 -119 127 C-117.7315625 127.3403125 -117.7315625 127.3403125 -116.4375 127.6875 C-113.20323032 128.92240297 -110.98043017 130.45434647 -108.234375 132.5078125 C-100.67020228 137.55941037 -92.07490405 141.1591389 -83.51171875 144.109375 C-78.66469268 145.82807165 -74.03841914 148.0477236 -69.3828125 150.22265625 C-63.96392658 152.73253684 -58.5499714 154.97579843 -52.8984375 156.91015625 C-44.29972504 160.14336484 -36.07596864 164.32004409 -27.8125 168.3125 C-27.21528137 168.60101837 -26.61806274 168.88953674 -26.00274658 169.1867981 C-23.04360106 170.61686824 -20.08558493 172.04924129 -17.12841797 173.48339844 C-15.26391571 174.38727607 -13.39863672 175.2895585 -11.53173828 176.18847656 C-5.03611321 179.31717988 1.14164491 182.53809102 7.05859375 186.66796875 C8.83302413 187.88543507 10.61859486 188.9585844 12.5 190 C15.37813001 191.6117528 18.1662693 193.33515677 20.9375 195.125 C21.70964844 195.62257813 22.48179687 196.12015625 23.27734375 196.6328125 C24.13005859 197.30957031 24.13005859 197.30957031 25 198 C25 198.66 25 199.32 25 200 C25.67160156 200.19207031 26.34320312 200.38414062 27.03515625 200.58203125 C31.20262689 202.57516938 34.12288512 205.51168255 37.4375 208.6875 C38.08009766 209.28755859 38.72269531 209.88761719 39.38476562 210.50585938 C45.00736852 215.82021805 50.18172051 221.23123182 54 228 C54.598125 228.825 55.19625 229.65 55.8125 230.5 C70.34329207 252.546719 71.27458474 280.85916574 66.21875 306.015625 C63.41807961 318.82853542 58.83728405 332.36521129 51 343 C50.33097656 343.93070313 49.66195312 344.86140625 48.97265625 345.8203125 C39.41557437 358.85715239 39.41557437 358.85715239 34 364 C33.34 364 32.68 364 32 364 C31.773125 364.61875 31.54625 365.2375 31.3125 365.875 C29.61137042 368.6292098 27.94623846 368.82150461 25 370 C24.64421875 370.87011719 24.64421875 370.87011719 24.28125 371.7578125 C22.34173129 375.15197025 19.22346697 376.82398898 16 378.875 C15.3186499 379.31626221 14.6372998 379.75752441 13.93530273 380.2121582 C12.57442828 381.08952386 11.21046763 381.96212354 9.84326172 382.82958984 C8.33650662 383.78632944 6.84046833 384.75992871 5.34765625 385.73828125 C-17.84806015 400.44872703 -48.76610198 408.94102287 -76.06640625 409.23828125 C-77.18840424 409.25283607 -77.18840424 409.25283607 -78.33306885 409.26768494 C-80.74293456 409.29251044 -83.15251932 409.30520238 -85.5625 409.3125 C-86.38680511 409.31511841 -87.21111023 409.31773682 -88.06039429 409.32043457 C-101.75057988 409.32508674 -114.64433603 408.14660781 -128 405 C-129.43704547 404.69446887 -130.87452668 404.39097777 -132.3125 404.08984375 C-158.67096955 398.31333907 -184.82005304 384.83205917 -205 367 C-205.49483887 366.57074219 -205.98967773 366.14148437 -206.49951172 365.69921875 C-213.41753485 359.68467687 -219.57324001 353.42670817 -225 346 C-225.9590625 344.69482422 -225.9590625 344.69482422 -226.9375 343.36328125 C-235.76921758 331.05407487 -235.76921758 331.05407487 -235 324 C-233.12890625 321.39453125 -233.12890625 321.39453125 -230.5625 318.8125 C-229.6329632 317.851325 -228.70593355 316.88771991 -227.78125 315.921875 C-227.31203125 315.43654297 -226.8428125 314.95121094 -226.359375 314.45117188 C-224.30144731 312.25427493 -222.43893807 309.91484628 -220.5625 307.5625 C-216.90858773 303.03216433 -213.06285348 298.75181758 -209.09936523 294.49609375 C-205.22460255 290.30996012 -201.61611533 285.94198567 -198.0703125 281.47265625 C-195.83467128 278.80254135 -193.59170561 276.32920166 -191 274 C-190.01 274 -189.02 274 -188 274 C-186.7890625 275.57421875 -186.7890625 275.57421875 -185.625 277.6875 C-184.02489906 280.43539372 -182.50256313 282.69110192 -180.1875 284.875 C-179.465625 285.57625 -178.74375 286.2775 -178 287 C-178 287.66 -178 288.32 -178 289 C-177.443125 289.226875 -176.88625 289.45375 -176.3125 289.6875 C-173.34760028 291.37028092 -171.383485 293.56108512 -169 296 C-163.53545522 301.19203467 -157.40613619 305.06875882 -151 309 C-150.23042969 309.5053125 -149.46085937 310.010625 -148.66796875 310.53125 C-122.39847036 327.35804965 -89.00747283 331.11675229 -58.875 324.99609375 C-44.03019663 321.73458754 -29.20107333 316.36771869 -20.15234375 303.33984375 C-14.93822114 294.77290471 -12.83968679 286.43824039 -14.3203125 276.30859375 C-18.31320768 262.74651873 -30.78293227 253.72192559 -42.60986328 247.25561523 C-50.54619801 243.07270217 -58.7445192 239.4979976 -67 236 C-67.79374023 235.66081543 -68.58748047 235.32163086 -69.40527344 234.97216797 C-77.56438465 231.48594267 -85.74929817 228.07623371 -94 224.8125 C-99.23740977 222.73666305 -104.36854651 220.51097252 -109.4765625 218.13671875 C-111.85560049 217.06504684 -114.24932357 216.11497907 -116.6875 215.1875 C-123.37558565 212.56117702 -129.71158634 209.21286416 -136.10595703 205.95214844 C-137.73427371 205.13358243 -139.3793835 204.34857502 -141.02734375 203.5703125 C-166.48692276 191.50111516 -191.17390995 172.95223547 -205 148 C-205.55945312 147.02933594 -206.11890625 146.05867187 -206.6953125 145.05859375 C-219.06519367 122.21471772 -220.72137282 93.58809425 -213.69702148 68.86083984 C-211.05789947 60.39903689 -207.40049448 52.67220481 -203 45 C-202.44957031 44.00226562 -201.89914063 43.00453125 -201.33203125 41.9765625 C-198.67083129 37.31091116 -195.96243644 33.67250207 -192 30 C-190.84425223 28.67525138 -189.69921068 27.34111918 -188.5625 26 C-185.60752774 22.58150267 -182.53147194 19.80912541 -179 17 C-178.27683594 16.27296875 -178.27683594 16.27296875 -177.5390625 15.53125 C-134.53245826 -27.25704661 -50.2634093 -29.34065518 0 0 Z " fill="#FFFFFF" transform="translate(3014,846)"/>
<path d="M0 0 C26.4 0 52.8 0 80 0 C80 181.5 80 363 80 550 C53.6 550 27.2 550 0 550 C0 368.5 0 187 0 0 Z " fill="#FEFEFE" transform="translate(692,691)"/>
<path d="M0 0 C2.84009348 2.16653657 5.70002136 4.30328599 8.5703125 6.4296875 C10.9338321 8.18493835 13.25183985 9.98630808 15.5546875 11.8203125 C26.51134921 20.41325706 38.45185153 27.35275482 52.8984375 26.58203125 C61.54538157 24.95936794 69.9138472 20.26249715 75 13 C80.48188037 3.86264004 84.31859636 -5.69776497 87 -16 C91.63512077 -15.38340137 95.78668703 -14.12290759 100.125 -12.4375 C101.13651123 -12.0513855 101.13651123 -12.0513855 102.16845703 -11.6574707 C125.95006396 -2.52496802 125.95006396 -2.52496802 131 0 C129.55696594 7.77864077 127.4207952 15.01380689 124.5625 22.375 C124.27431396 23.12313965 123.98612793 23.8712793 123.68920898 24.64208984 C116.59987902 42.46159168 103.20912945 57.90403775 86.06640625 66.6875 C66.05029334 75.25490629 43.70931235 77.37591947 23 70 C22.14019531 69.73445312 21.28039063 69.46890625 20.39453125 69.1953125 C8.42393209 65.09445471 -1.88023571 56.19737709 -11.75390625 48.51953125 C-12.83559236 47.67924302 -13.91763076 46.83940812 -15 46 C-15.5657373 45.56091309 -16.13147461 45.12182617 -16.71435547 44.66943359 C-28.59489379 35.53948016 -41.48192844 28.28671037 -57 30 C-69.0930456 33.35416563 -75.26167106 39.78586912 -81.3046875 50.44921875 C-83.62388165 55.30670143 -85.3311291 60.32151615 -86.87133789 65.47607422 C-87.54296875 67.60546875 -87.54296875 67.60546875 -89 71 C-91.29751341 72.00292413 -92.57282147 72.10864175 -95.00439453 71.49023438 C-96.05796143 71.04647461 -96.05796143 71.04647461 -97.1328125 70.59375 C-97.93090332 70.26528076 -98.72899414 69.93681152 -99.55126953 69.59838867 C-100.40060059 69.23592041 -101.24993164 68.87345215 -102.125 68.5 C-103.91614475 67.75525394 -105.70782416 67.01179262 -107.5 66.26953125 C-108.86511719 65.70032959 -108.86511719 65.70032959 -110.2578125 65.11962891 C-112.906874 64.03802313 -115.56976153 63.01326556 -118.25 62.01171875 C-119.07097168 61.70363281 -119.89194336 61.39554688 -120.73779297 61.078125 C-122.30201852 60.49453993 -123.86869229 59.91746607 -125.43798828 59.34765625 C-130.77847638 57.33228543 -130.77847638 57.33228543 -133 54 C-132.66227576 51.48380226 -132.21437491 49.24918749 -131.5625 46.8125 C-131.3778418 46.10706055 -131.19318359 45.40162109 -131.00292969 44.67480469 C-126.59670822 28.72612185 -118.6069112 12.06948301 -106 1 C-105.01 1 -104.02 1 -103 1 C-102.79632812 0.42378906 -102.59265625 -0.15242187 -102.3828125 -0.74609375 C-98.33243794 -7.34797545 -87.34767313 -11.97052622 -80 -14 C-78.17275391 -14.50660156 -78.17275391 -14.50660156 -76.30859375 -15.0234375 C-49.01436779 -22.33277162 -22.10172638 -18.30355736 0 0 Z " fill="#FFFFFF" transform="translate(2099,714)"/>
<path d="M0 0 C8.96407208 6.59196387 14.81296376 15.81398138 18.8046875 26.0625 C19.09214844 26.7534375 19.37960938 27.444375 19.67578125 28.15625 C25.06356952 41.56127345 23.42829919 55.96068317 18.1796875 69.125 C11.7830101 83.31568725 0.23475434 94.53088259 -14.2890625 100.2890625 C-27.65780123 104.88870281 -39.65903869 105.30411168 -53.1953125 101.0625 C-54.45988281 100.67964844 -54.45988281 100.67964844 -55.75 100.2890625 C-63.11946574 97.72269903 -69.40780928 93.23978871 -75.1953125 88.0625 C-75.5253125 87.0725 -75.8553125 86.0825 -76.1953125 85.0625 C-77.1853125 84.7325 -78.1753125 84.4025 -79.1953125 84.0625 C-80.64788224 82.04178807 -81.93386153 80.07153359 -83.1953125 77.9375 C-83.8759375 76.82117187 -84.5565625 75.70484375 -85.2578125 74.5546875 C-90.64983164 64.83600783 -91.3767692 57.14607071 -91.3828125 46.25 C-91.39505859 45.09951172 -91.40730469 43.94902344 -91.41992188 42.76367188 C-91.43614251 33.32866714 -90.36104615 26.2384269 -85.4453125 18 C-85.0838916 17.38930664 -84.7224707 16.77861328 -84.35009766 16.14941406 C-76.6476779 3.37016637 -65.36847379 -5.68537815 -50.87036133 -9.64648438 C-32.20435837 -14.01338792 -16.02901767 -10.11500352 0 0 Z " fill="#FEFEFE" transform="translate(3210.1953125,1152.9375)"/>
</svg>
